<svg version="1.1" id="Layer_1" xmlns="http://www.w3.org/2000/svg" xmlns:xlink="http://www.w3.org/1999/xlink" x="0px" y="0px"
	 width="100%" viewBox="0 0 240 448" enable-background="new 0 0 240 448" xml:space="preserve">
<path fill="#000000" opacity="1.000000" stroke="none" 
	d="
M235.375000,449.000000 
	C222.827377,431.983429 217.753326,412.028320 211.526505,392.532806 
	C207.738892,380.674194 202.945236,369.314789 192.242233,361.799591 
	C188.358231,359.072418 184.265182,356.550110 178.243271,356.270477 
	C187.504562,371.119476 190.321716,386.252319 186.139252,402.914459 
	C183.313019,401.529572 184.300079,399.984314 184.420578,398.596680 
	C185.643814,384.509399 184.481110,370.999451 175.399323,359.229553 
	C172.591171,355.590210 169.452835,354.438232 164.701630,354.585388 
	C151.683578,354.988495 139.019211,358.557343 125.964676,358.357086 
	C115.268906,358.192963 105.836838,355.605042 99.715034,345.906769 
	C95.001534,338.439575 95.140053,330.485718 97.298111,322.310089 
	C98.232735,318.769318 99.187958,315.243896 99.023300,311.500580 
	C98.837753,307.282349 97.554794,303.961548 93.850853,301.328461 
	C87.737877,296.982819 86.587517,291.166595 90.435890,284.738861 
	C92.280350,281.658142 92.184158,279.726959 89.682419,276.957489 
	C82.616745,269.135712 82.928497,261.056793 90.034378,253.504349 
	C96.886360,246.221771 96.277092,241.788834 87.618927,236.606735 
	C82.752876,233.694305 77.820999,230.891953 74.103836,226.461273 
	C67.966949,219.146439 68.032227,210.971710 74.496780,203.984909 
	C83.444496,194.314377 91.815231,184.173370 99.730331,173.650223 
	C100.912933,172.077972 102.215622,170.521439 102.258568,167.799866 
	C94.276100,168.457306 86.937920,167.323639 81.985390,159.430908 
	C85.352821,157.868057 87.416000,160.010330 89.718948,160.338974 
	C95.706161,161.193344 97.503250,159.545181 98.358337,153.594498 
	C99.244217,147.429535 98.090240,141.618057 96.556190,135.847702 
	C93.646965,124.904495 94.128906,114.114326 97.248894,103.348915 
	C108.919731,63.078987 133.206848,33.330151 171.088043,14.967209 
	C173.034302,14.023757 175.040771,12.555575 179.058411,14.323867 
	C134.042252,35.173935 107.822746,69.435028 98.700417,116.902466 
	C112.023308,121.510872 119.383774,138.156494 114.911316,154.035294 
	C111.473038,166.242386 103.425278,175.745575 95.929741,185.482361 
	C90.452179,192.597778 84.382240,199.265350 78.441147,206.013535 
	C72.087372,213.230453 72.356552,219.790939 79.950676,225.930466 
	C84.201347,229.366943 89.108131,231.982468 93.447449,235.321198 
	C98.382805,239.118561 102.847946,243.420532 103.240936,250.278915 
	C103.744705,259.070709 98.577278,263.322632 90.368073,260.876831 
	C87.310867,266.706482 88.774567,271.277924 95.356491,275.987122 
	C99.535812,270.621613 105.138863,271.137634 110.724350,272.883453 
	C114.999008,274.219543 119.133797,276.063385 123.221489,277.921783 
	C128.162201,280.168030 133.164505,282.100525 139.063904,281.904541 
	C138.039780,285.245575 135.973801,285.105835 134.038345,285.229156 
	C129.791031,285.499756 125.812195,284.058868 121.761459,283.202606 
	C114.364990,281.639160 106.807632,282.649841 99.385193,281.523682 
	C96.743324,281.122864 93.137650,286.067169 92.638412,290.253571 
	C92.162224,294.246674 94.601723,297.730499 98.817352,298.637024 
	C103.217155,299.583160 107.666077,300.261292 112.177032,299.148224 
	C113.439323,298.836823 114.788704,298.434357 116.411926,299.893860 
	C112.702377,303.813080 107.460426,302.216583 102.649261,303.998840 
	C104.779022,313.379700 101.189438,322.438538 100.329056,331.783447 
	C99.441002,341.428925 106.364815,350.262817 116.173271,352.647308 
	C126.365593,355.125183 150.922028,352.358154 161.228088,347.375153 
	C157.433441,343.774536 153.897903,340.146576 151.731277,335.446045 
	C147.173447,325.557800 148.191116,315.608521 152.943756,306.491180 
	C163.517334,286.207031 180.014633,273.074799 202.695999,268.307312 
	C206.323914,267.544739 209.955978,267.663391 213.583267,268.602905 
	C222.448792,270.899139 226.599121,277.643951 224.799057,286.709991 
	C223.389877,293.807465 219.690262,299.699371 215.229828,305.146606 
	C205.349350,317.212982 192.942780,326.073120 179.082153,332.989288 
	C177.765228,333.646362 176.177155,334.963379 174.608765,333.077698 
	C174.833954,330.889435 176.868073,330.852753 178.197739,330.118073 
	C192.315567,322.317474 205.430023,313.329834 214.749146,299.755646 
	C217.594696,295.610809 220.094238,291.334351 221.025742,286.279327 
	C222.571503,277.890839 218.608353,272.763519 209.971466,272.223633 
	C200.811737,271.651031 192.456085,274.563232 184.763138,279.036011 
	C170.416229,287.377563 158.688080,298.338684 154.055222,314.913605 
	C151.236725,324.997345 152.995956,334.295441 161.047119,341.960236 
	C164.643768,345.384277 168.110123,346.301239 172.706146,344.444702 
	C197.321457,334.501770 221.891846,324.518616 240.692688,304.137024 
	C241.000000,305.388885 241.000000,306.777802 240.698532,308.720520 
	C221.376526,328.904327 196.568512,338.870911 172.030960,349.849335 
	C196.420547,353.169556 207.850906,369.245605 214.593582,390.512665 
	C218.107239,401.595032 220.968201,412.873840 225.087814,423.784760 
	C228.460159,432.716492 233.811996,440.539886 238.000000,449.000000 
	C237.250000,449.000000 236.500000,449.000000 235.375000,449.000000 
M102.901619,152.368652 
	C102.807777,155.621109 103.462601,158.978806 101.422806,161.951385 
	C106.317963,162.286530 108.563683,159.650864 110.000946,155.405899 
	C111.919800,149.738510 112.379517,143.922119 111.431366,138.213318 
	C110.221977,130.931488 106.606850,124.894272 99.571442,120.595688 
	C98.396759,125.998436 99.716476,130.170578 100.691811,134.320511 
	C102.017464,139.960968 103.848190,145.505173 102.901619,152.368652 
M99.894554,250.148560 
	C99.633911,249.252716 99.940742,248.123520 98.506897,247.384369 
	C97.477898,251.102875 94.337448,253.755814 93.524292,257.681702 
	C98.188545,258.146912 99.249405,256.951843 99.894554,250.148560 
M107.531380,276.306091 
	C105.493797,276.237244 103.401756,275.684143 100.658203,277.116882 
	C104.284172,278.353729 107.096336,277.926117 111.261604,277.467407 
	C109.384254,276.813782 108.791039,276.607239 107.531380,276.306091 
z"/>
<path fill="#000000" opacity="1.000000" stroke="none" 
	d="
M166.476273,169.752869 
	C167.780701,167.138641 169.301117,166.692169 170.449799,169.207962 
	C175.683319,180.670181 183.124939,191.103531 186.690552,203.325211 
	C189.801208,213.987457 186.067627,223.238007 177.320038,227.518478 
	C168.901276,231.638031 158.570908,229.402924 153.211395,221.843536 
	C146.871277,212.901062 149.507706,203.695557 153.596939,194.893845 
	C157.511688,186.467712 162.047760,178.330246 166.476273,169.752869 
z"/>
<path fill="#000000" opacity="1.000000" stroke="none" 
	d="
M92.095665,228.312531 
	C94.500069,225.550659 97.369789,225.507568 100.126190,226.305725 
	C105.859726,227.966003 111.727684,229.605209 115.161064,235.169449 
	C116.289848,236.998779 117.845505,236.841064 119.511375,236.557510 
	C126.280716,235.405304 129.847534,229.797134 128.304443,222.934723 
	C127.855217,220.936920 126.273537,219.067108 127.364609,216.762985 
	C131.743423,220.599350 132.917725,228.164581 130.026459,233.463898 
	C126.908501,239.178741 118.616928,242.624817 112.297562,239.778671 
	C106.962219,237.375732 101.448853,235.795380 95.967384,233.963409 
	C93.591606,233.169388 91.197601,232.020172 92.095665,228.312531 
z"/>
</svg>